<?xml version="1.0" encoding="UTF-8" standalone="no"?>
<!DOCTYPE svg PUBLIC "-//W3C//DTD SVG 1.1//EN" "http://www.w3.org/Graphics/SVG/1.1/DTD/svg11.dtd">
<svg width="100%" height="100%" viewBox="0 0 100 100" version="1.1" xmlns="http://www.w3.org/2000/svg" xmlns:xlink="http://www.w3.org/1999/xlink" xml:space="preserve" xmlns:serif="http://www.serif.com/" style="fill-rule:evenodd;clip-rule:evenodd;stroke-linejoin:round;stroke-miterlimit:2;">
    <g transform="matrix(0.695852,0,0,0.695852,37.9765,22.7497)">
        <path d="M0,47.441C6.248,53.641 13.987,56.739 23.215,56.739C32.443,56.739 40.182,53.641 46.431,47.441C52.679,41.238 55.805,33.334 55.805,23.72C55.805,14.108 52.679,6.177 46.431,-0.075C40.182,-6.323 32.443,-9.446 23.215,-9.446C13.987,-9.446 6.248,-6.323 0,-0.075C-6.252,6.177 -9.374,14.108 -9.374,23.72C-9.374,33.334 -6.252,41.238 0,47.441M60.419,60.993C50.228,71.139 37.826,76.209 23.215,76.209C8.601,76.209 -3.774,71.139 -13.915,60.993C-24.06,50.854 -29.129,38.428 -29.129,23.72C-29.129,9.012 -24.06,-3.413 -13.915,-13.556C-3.774,-23.699 8.601,-28.768 23.215,-28.768C37.826,-28.768 50.228,-23.699 60.419,-13.556C70.607,-3.413 75.703,9.012 75.703,23.72C75.703,38.428 70.607,50.854 60.419,60.993" style="fill:white;fill-rule:nonzero;"/>
    </g>
    <g transform="matrix(0.523684,0.45822,0.45822,-0.523684,9.4193,90.0173)">
        <path d="M7.913,-2.973C1.276,-2.972 -4.104,2.407 -4.104,9.045C-4.104,15.681 1.276,21.06 7.913,21.061C14.549,21.06 19.929,15.68 19.929,9.044C19.929,2.408 14.549,-2.973 7.913,-2.973" style="fill:white;fill-rule:nonzero;"/>
    </g>
</svg>
