<svg width="1027" height="848" viewBox="0 0 1027 848" fill="none" xmlns="http://www.w3.org/2000/svg">
<g filter="url(#filter0_f_2_318)">
<ellipse cx="362.161" cy="797.198" rx="597.498" ry="6.802" fill="black"/>
</g>
<path d="M-173.598 28C-173.598 13.0883 -161.509 1 -146.598 1L874.879 1C889.79 1 901.879 13.0883 901.879 28V749.661C901.879 751.318 900.535 752.661 898.879 752.661H-170.598C-172.255 752.661 -173.598 751.318 -173.598 749.661V28Z" fill="#1A202C" stroke="#4A5568" stroke-width="2"/>
<path d="M-167.994 28.8023C-167.994 16.652 -158.144 6.80225 -145.994 6.80225L874.278 6.80225C886.428 6.80225 896.278 16.652 896.278 28.8022V725.093H-167.994V28.8023Z" fill="black"/>
<path d="M321.834 727.998V737.452H323.477V730.943H323.565L326.178 737.425H327.406L330.019 730.957H330.106V737.452H331.75V727.998H329.654L326.847 734.849H326.736L323.93 727.998H321.834ZM335.582 737.596C336.694 737.596 337.359 737.074 337.664 736.478H337.719V737.452H339.326V732.707C339.326 730.832 337.797 730.269 336.445 730.269C334.954 730.269 333.809 730.934 333.439 732.227L335 732.448C335.166 731.963 335.637 731.548 336.454 731.548C337.23 731.548 337.654 731.945 337.654 732.642V732.67C337.654 733.15 337.151 733.173 335.9 733.307C334.524 733.455 333.209 733.865 333.209 735.463C333.209 736.857 334.229 737.596 335.582 737.596ZM336.015 736.368C335.318 736.368 334.82 736.049 334.82 735.435C334.82 734.793 335.378 734.526 336.126 734.419C336.565 734.359 337.442 734.249 337.659 734.073V734.909C337.659 735.698 337.022 736.368 336.015 736.368ZM344.099 737.591C345.881 737.591 347.017 736.534 347.137 735.029H345.539C345.396 735.79 344.847 736.229 344.113 736.229C343.069 736.229 342.395 735.357 342.395 733.907C342.395 732.476 343.083 731.617 344.113 731.617C344.916 731.617 345.41 732.134 345.539 732.817H347.137C347.021 731.28 345.821 730.269 344.09 730.269C342.012 730.269 340.701 731.77 340.701 733.935C340.701 736.081 341.98 737.591 344.099 737.591ZM348.583 737.452H350.226V736.335H350.323C350.586 736.852 351.136 737.577 352.354 737.577C354.026 737.577 355.277 736.252 355.277 733.916C355.277 731.553 353.989 730.269 352.35 730.269C351.099 730.269 350.577 731.022 350.323 731.534H350.254V727.998H348.583V737.452ZM350.222 733.907C350.222 732.531 350.812 731.64 351.888 731.64C353.001 731.64 353.573 732.587 353.573 733.907C353.573 735.236 352.991 736.206 351.888 736.206C350.822 736.206 350.222 735.283 350.222 733.907ZM359.79 737.591C361.868 737.591 363.188 736.127 363.188 733.935C363.188 731.737 361.868 730.269 359.79 730.269C357.713 730.269 356.393 731.737 356.393 733.935C356.393 736.127 357.713 737.591 359.79 737.591ZM359.8 736.252C358.65 736.252 358.087 735.227 358.087 733.93C358.087 732.633 358.65 731.594 359.8 731.594C360.931 731.594 361.494 732.633 361.494 733.93C361.494 735.227 360.931 736.252 359.8 736.252ZM367.7 737.591C369.777 737.591 371.097 736.127 371.097 733.935C371.097 731.737 369.777 730.269 367.7 730.269C365.622 730.269 364.302 731.737 364.302 733.935C364.302 736.127 365.622 737.591 367.7 737.591ZM367.709 736.252C366.559 736.252 365.996 735.227 365.996 733.93C365.996 732.633 366.559 731.594 367.709 731.594C368.84 731.594 369.403 732.633 369.403 733.93C369.403 735.227 368.84 736.252 367.709 736.252ZM372.516 737.452H374.187V735.07L374.796 734.419L376.966 737.452H378.965L376.057 733.422L378.803 730.361H376.851L374.302 733.21H374.187V727.998H372.516V737.452ZM383.216 737.452H384.928V734.258H386.738C388.921 734.258 390.094 732.947 390.094 731.128C390.094 729.323 388.935 727.998 386.761 727.998H383.216V737.452ZM384.928 732.85V729.429H386.498C387.781 729.429 388.349 730.121 388.349 731.128C388.349 732.134 387.781 732.85 386.507 732.85H384.928ZM391.508 737.452H393.179V733.284C393.179 732.384 393.858 731.746 394.776 731.746C395.058 731.746 395.409 731.797 395.552 731.843V730.306C395.4 730.278 395.136 730.26 394.952 730.26C394.139 730.26 393.461 730.722 393.202 731.543H393.128V730.361H391.508V737.452ZM399.463 737.591C401.541 737.591 402.861 736.127 402.861 733.935C402.861 731.737 401.541 730.269 399.463 730.269C397.386 730.269 396.065 731.737 396.065 733.935C396.065 736.127 397.386 737.591 399.463 737.591ZM399.472 736.252C398.323 736.252 397.76 735.227 397.76 733.93C397.76 732.633 398.323 731.594 399.472 731.594C400.603 731.594 401.167 732.633 401.167 733.93C401.167 735.227 400.603 736.252 399.472 736.252Z" fill="#A0AEC0"/>
<path d="M-304 750.223C-304 749.118 -303.105 748.223 -302 748.223H1025C1026.1 748.223 1027 749.118 1027 750.223V772.71H-304V750.223Z" fill="#A3ACB1"/>
<path d="M-304 750.223C-304 749.118 -303.105 748.223 -302 748.223H1025C1026.1 748.223 1027 749.118 1027 750.223V772.71H-304V750.223Z" fill="url(#paint0_linear_2_318)"/>
<path d="M-304 772.709H1027L988.692 780.669C961.924 786.231 934.656 789.034 907.316 789.034H-187.492C-217.533 789.034 -247.478 785.649 -276.761 778.945L-304 772.709Z" fill="#647279"/>
<path d="M-304 772.709H1027L988.692 780.669C961.924 786.231 934.656 789.034 907.316 789.034H-187.492C-217.533 789.034 -247.478 785.649 -276.761 778.945L-304 772.709Z" fill="url(#paint1_linear_2_318)"/>
<path fill-rule="evenodd" clip-rule="evenodd" d="M251.948 748.218C252.627 758.854 261.216 767.264 271.711 767.264H452.611C463.106 767.264 471.694 758.854 472.374 748.218H251.948Z" fill="#96A1A8"/>
<path fill-rule="evenodd" clip-rule="evenodd" d="M251.948 748.218C252.627 758.854 261.216 767.264 271.711 767.264H452.611C463.106 767.264 471.694 758.854 472.374 748.218H251.948Z" fill="url(#paint2_linear_2_318)"/>
<defs>
<filter id="filter0_f_2_318" x="-279.336" y="746.396" width="1283" height="101.604" filterUnits="userSpaceOnUse" color-interpolation-filters="sRGB">
<feFlood flood-opacity="0" result="BackgroundImageFix"/>
<feBlend mode="normal" in="SourceGraphic" in2="BackgroundImageFix" result="shape"/>
<feGaussianBlur stdDeviation="22" result="effect1_foregroundBlur_2_318"/>
</filter>
<linearGradient id="paint0_linear_2_318" x1="-304" y1="760.467" x2="1027" y2="760.467" gradientUnits="userSpaceOnUse">
<stop stop-color="#0D1012"/>
<stop offset="0.0295345" stop-color="#CAD4DB"/>
<stop offset="0.0625" stop-color="#242729"/>
<stop offset="0.133609" stop-color="#A3ACB1"/>
<stop offset="0.865967" stop-color="#A3ACB1"/>
<stop offset="0.941937" stop-color="#242729"/>
<stop offset="0.971275" stop-color="#CAD4DB"/>
<stop offset="0.996436" stop-color="#0D1012"/>
</linearGradient>
<linearGradient id="paint1_linear_2_318" x1="361.5" y1="772.709" x2="361.5" y2="789.034" gradientUnits="userSpaceOnUse">
<stop stop-color="#7A7F83"/>
<stop offset="1" stop-color="#0B0B0E"/>
</linearGradient>
<linearGradient id="paint2_linear_2_318" x1="273.692" y1="759.782" x2="454.591" y2="759.782" gradientUnits="userSpaceOnUse">
<stop stop-color="#3C3C3C"/>
<stop offset="0.317518" stop-color="#3C3C3C" stop-opacity="0"/>
<stop offset="0.660584" stop-color="#3C3C3C" stop-opacity="0"/>
<stop offset="1" stop-color="#444444"/>
</linearGradient>
</defs>
</svg>
